<svg width="150" height="150" xmlns="http://www.w3.org/2000/svg">
  <defs>
    <linearGradient id="ethGradient" x1="0%" y1="0%" x2="100%" y2="100%">
      <stop offset="0%" style="stop-color:#00ffff;stop-opacity:1" />
      <stop offset="100%" style="stop-color:#0099ff;stop-opacity:1" />
    </linearGradient>
  </defs>
  <rect width="150" height="150" fill="#000" stroke="#00ffff" stroke-width="2"/>
  <rect x="10" y="10" width="130" height="130" fill="url(#ethGradient)" opacity="0.1"/>
  <text x="75" y="50" text-anchor="middle" fill="#00ffff" font-family="monospace" font-size="10">ETH</text>
  <text x="75" y="70" text-anchor="middle" fill="#00ffff" font-family="monospace" font-size="8">QR CODE</text>
  <text x="75" y="85" text-anchor="middle" fill="#00ffff" font-family="monospace" font-size="6">PLACEHOLDER</text>
  <!-- Simple QR-like pattern -->
  <g fill="#00ffff" opacity="0.6">
    <rect x="20" y="20" width="6" height="6"/>
    <rect x="30" y="20" width="6" height="6"/>
    <rect x="50" y="20" width="6" height="6"/>
    <rect x="60" y="20" width="6" height="6"/>
    <rect x="80" y="20" width="6" height="6"/>
    <rect x="100" y="20" width="6" height="6"/>
    <rect x="110" y="20" width="6" height="6"/>
    <rect x="120" y="20" width="6" height="6"/>
    <rect x="20" y="30" width="6" height="6"/>
    <rect x="40" y="30" width="6" height="6"/>
    <rect x="70" y="30" width="6" height="6"/>
    <rect x="90" y="30" width="6" height="6"/>
    <rect x="120" y="30" width="6" height="6"/>
    <rect x="20" y="100" width="6" height="6"/>
    <rect x="30" y="100" width="6" height="6"/>
    <rect x="50" y="100" width="6" height="6"/>
    <rect x="70" y="100" width="6" height="6"/>
    <rect x="90" y="100" width="6" height="6"/>
    <rect x="110" y="100" width="6" height="6"/>
    <rect x="120" y="100" width="6" height="6"/>
    <rect x="20" y="110" width="6" height="6"/>
    <rect x="40" y="110" width="6" height="6"/>
    <rect x="60" y="110" width="6" height="6"/>
    <rect x="80" y="110" width="6" height="6"/>
    <rect x="100" y="110" width="6" height="6"/>
    <rect x="120" y="110" width="6" height="6"/>
    <rect x="20" y="120" width="6" height="6"/>
    <rect x="30" y="120" width="6" height="6"/>
    <rect x="50" y="120" width="6" height="6"/>
    <rect x="70" y="120" width="6" height="6"/>
    <rect x="90" y="120" width="6" height="6"/>
    <rect x="110" y="120" width="6" height="6"/>
    <rect x="120" y="120" width="6" height="6"/>
  </g>
</svg>